<svg xmlns="http://www.w3.org/2000/svg" xmlns:xlink="http://www.w3.org/1999/xlink" version="1.1" width="256" height="256" viewBox="0 0 256 256" xml:space="preserve">

<defs>
</defs>
<g style="stroke: none; stroke-width: 0; stroke-dasharray: none; stroke-linecap: butt; stroke-linejoin: miter; stroke-miterlimit: 10; fill: none; fill-rule: nonzero; opacity: 1;" transform="translate(1.4065934065934016 1.4065934065934016) scale(2.81 2.81)" >
	<path d="M 22.75 83.924 l 0 -45.085 c 0 -3.384 2.743 -6.127 6.127 -6.127 l 34.107 0 c 2.357 0 4.267 1.91 4.267 4.267 l 0 42.3 C 66.77 81.755 41.802 82.601 22.75 83.924 z" style="stroke: none; stroke-width: 1; stroke-dasharray: none; stroke-linecap: butt; stroke-linejoin: miter; stroke-miterlimit: 10; fill: rgb(31,159,133); fill-rule: nonzero; opacity: 1;" transform=" matrix(1 0 0 1 0 0) " stroke-linecap="round" />
	<path d="M 28.825 32.712 l 0 49.728 l -6.076 1.484 l 0 -45.085 c 0 -3.384 2.743 -6.127 6.127 -6.127" style="stroke: none; stroke-width: 1; stroke-dasharray: none; stroke-linecap: butt; stroke-linejoin: miter; stroke-miterlimit: 10; fill: rgb(37,131,113); fill-rule: nonzero; opacity: 1;" transform=" matrix(1 0 0 1 0 0) " stroke-linecap="round" />
	<path d="M 64.255 80.709 h 1.566 c 0.79 0 1.43 -0.64 1.43 -1.43 l 0 0 c 0 -0.79 -0.64 -1.43 -1.43 -1.43 l -36.995 0 c -3.356 0 -6.076 2.72 -6.076 6.076 v 0 c 0 3.356 2.72 6.076 6.076 6.076 l 36.995 0 c 0.79 0 1.43 -0.64 1.43 -1.43 l 0 0 c 0 -0.79 -0.64 -1.43 -1.43 -1.43 h -1.566 V 80.709 z" style="stroke: none; stroke-width: 1; stroke-dasharray: none; stroke-linecap: butt; stroke-linejoin: miter; stroke-miterlimit: 10; fill: rgb(37,131,113); fill-rule: nonzero; opacity: 1;" transform=" matrix(1 0 0 1 0 0) " stroke-linecap="round" />
	<path d="M 35.892 60.534 l 20.661 0 c 1.107 0 2.004 -0.897 2.004 -2.004 V 46.091 c 0 -1.107 -0.897 -2.004 -2.004 -2.004 l -20.661 0 c -1.107 0 -2.004 0.897 -2.004 2.004 l 0 12.439 C 33.888 59.637 34.785 60.534 35.892 60.534 z" style="stroke: none; stroke-width: 1; stroke-dasharray: none; stroke-linecap: butt; stroke-linejoin: miter; stroke-miterlimit: 10; fill: rgb(78,222,193); fill-rule: nonzero; opacity: 1;" transform=" matrix(1 0 0 1 0 0) " stroke-linecap="round" />
	<path d="M 29.205 87.14 l 36.352 0 l 0 -6.431 l -36.352 0 c -1.776 0 -3.216 1.44 -3.216 3.216 v 0 C 25.989 85.7 27.429 87.14 29.205 87.14 z" style="stroke: none; stroke-width: 1; stroke-dasharray: none; stroke-linecap: butt; stroke-linejoin: miter; stroke-miterlimit: 10; fill: rgb(159,227,213); fill-rule: nonzero; opacity: 1;" transform=" matrix(1 0 0 1 0 0) " stroke-linecap="round" />
	<path d="M 56.553 61.545 H 35.892 c -1.663 0 -3.016 -1.353 -3.016 -3.016 V 46.091 c 0 -1.663 1.353 -3.016 3.016 -3.016 h 20.661 c 1.663 0 3.016 1.353 3.016 3.016 v 12.438 C 59.569 60.192 58.216 61.545 56.553 61.545 z M 35.892 45.098 c -0.548 0 -0.993 0.446 -0.993 0.993 v 12.438 c 0 0.548 0.446 0.993 0.993 0.993 h 20.661 c 0.548 0 0.993 -0.445 0.993 -0.993 V 46.091 c 0 -0.548 -0.445 -0.993 -0.993 -0.993 H 35.892 z" style="stroke: none; stroke-width: 1; stroke-dasharray: none; stroke-linecap: butt; stroke-linejoin: miter; stroke-miterlimit: 10; fill: rgb(0,0,0); fill-rule: nonzero; opacity: 1;" transform=" matrix(1 0 0 1 0 0) " stroke-linecap="round" />
	<path d="M 58.558 67.125 h -24.67 c -0.558 0 -1.011 -0.452 -1.011 -1.011 s 0.453 -1.011 1.011 -1.011 h 24.67 c 0.559 0 1.011 0.452 1.011 1.011 S 59.117 67.125 58.558 67.125 z" style="stroke: none; stroke-width: 1; stroke-dasharray: none; stroke-linecap: butt; stroke-linejoin: miter; stroke-miterlimit: 10; fill: rgb(0,0,0); fill-rule: nonzero; opacity: 1;" transform=" matrix(1 0 0 1 0 0) " stroke-linecap="round" />
	<path d="M 58.558 73.116 h -24.67 c -0.558 0 -1.011 -0.452 -1.011 -1.011 s 0.453 -1.011 1.011 -1.011 h 24.67 c 0.559 0 1.011 0.452 1.011 1.011 S 59.117 73.116 58.558 73.116 z" style="stroke: none; stroke-width: 1; stroke-dasharray: none; stroke-linecap: butt; stroke-linejoin: miter; stroke-miterlimit: 10; fill: rgb(0,0,0); fill-rule: nonzero; opacity: 1;" transform=" matrix(1 0 0 1 0 0) " stroke-linecap="round" />
	<path d="M 28.825 38.93 c -0.558 0 -1.011 -0.453 -1.011 -1.011 v -5.207 c 0 -0.558 0.453 -1.011 1.011 -1.011 s 1.011 0.453 1.011 1.011 v 5.207 C 29.836 38.477 29.384 38.93 28.825 38.93 z" style="stroke: none; stroke-width: 1; stroke-dasharray: none; stroke-linecap: butt; stroke-linejoin: miter; stroke-miterlimit: 10; fill: rgb(0,0,0); fill-rule: nonzero; opacity: 1;" transform=" matrix(1 0 0 1 0 0) " stroke-linecap="round" />
	<path d="M 62.821 67.829 l 0 -45.085 c 0 -3.384 -2.743 -6.127 -6.127 -6.127 l -34.107 0 c -2.357 0 -4.267 1.91 -4.267 4.267 l 0 42.3 C 18.801 65.66 43.769 66.506 62.821 67.829 z" style="stroke: none; stroke-width: 1; stroke-dasharray: none; stroke-linecap: butt; stroke-linejoin: miter; stroke-miterlimit: 10; fill: rgb(236,167,66); fill-rule: nonzero; opacity: 1;" transform=" matrix(1 0 0 1 0 0) " stroke-linecap="round" />
	<path d="M 56.745 16.616 l 0 49.728 l 6.076 1.484 l 0 -45.085 c 0 -3.384 -2.743 -6.127 -6.127 -6.127" style="stroke: none; stroke-width: 1; stroke-dasharray: none; stroke-linecap: butt; stroke-linejoin: miter; stroke-miterlimit: 10; fill: rgb(200,140,53); fill-rule: nonzero; opacity: 1;" transform=" matrix(1 0 0 1 0 0) " stroke-linecap="round" />
	<path d="M 21.315 64.613 H 19.75 c -0.79 0 -1.43 -0.64 -1.43 -1.43 l 0 0 c 0 -0.79 0.64 -1.43 1.43 -1.43 l 36.995 0 c 3.356 0 6.076 2.72 6.076 6.076 v 0 c 0 3.356 -2.72 6.076 -6.076 6.076 l -36.995 0 c -0.79 0 -1.43 -0.64 -1.43 -1.43 l 0 0 c 0 -0.79 0.64 -1.43 1.43 -1.43 h 1.566 L 21.315 64.613 z" style="stroke: none; stroke-width: 1; stroke-dasharray: none; stroke-linecap: butt; stroke-linejoin: miter; stroke-miterlimit: 10; fill: rgb(200,140,53); fill-rule: nonzero; opacity: 1;" transform=" matrix(1 0 0 1 0 0) " stroke-linecap="round" />
	<path d="M 56.366 71.045 l -36.352 0 l 0 -6.431 l 36.352 0 c 1.776 0 3.216 1.44 3.216 3.216 v 0 C 59.581 69.605 58.142 71.045 56.366 71.045 z" style="stroke: none; stroke-width: 1; stroke-dasharray: none; stroke-linecap: butt; stroke-linejoin: miter; stroke-miterlimit: 10; fill: rgb(245,205,148); fill-rule: nonzero; opacity: 1;" transform=" matrix(1 0 0 1 0 0) " stroke-linecap="round" />
	<path d="M 56.745 22.835 c -0.559 0 -1.011 -0.453 -1.011 -1.011 v -5.208 c 0 -0.558 0.452 -1.011 1.011 -1.011 s 1.011 0.453 1.011 1.011 v 5.208 C 57.756 22.382 57.304 22.835 56.745 22.835 z" style="stroke: none; stroke-width: 1; stroke-dasharray: none; stroke-linecap: butt; stroke-linejoin: miter; stroke-miterlimit: 10; fill: rgb(0,0,0); fill-rule: nonzero; opacity: 1;" transform=" matrix(1 0 0 1 0 0) " stroke-linecap="round" />
	<path d="M 27.179 51.213 l 0 -45.085 C 27.179 2.743 29.923 0 33.307 0 l 34.107 0 c 2.357 0 4.267 1.91 4.267 4.267 l 0 42.3 C 71.199 49.043 46.231 49.889 27.179 51.213 z" style="stroke: none; stroke-width: 1; stroke-dasharray: none; stroke-linecap: butt; stroke-linejoin: miter; stroke-miterlimit: 10; fill: rgb(222,95,84); fill-rule: nonzero; opacity: 1;" transform=" matrix(1 0 0 1 0 0) " stroke-linecap="round" />
	<path d="M 33.255 0 l 0 49.728 l -6.076 1.484 l 0 -45.085 C 27.179 2.743 29.923 0 33.307 0" style="stroke: none; stroke-width: 1; stroke-dasharray: none; stroke-linecap: butt; stroke-linejoin: miter; stroke-miterlimit: 10; fill: rgb(182,73,64); fill-rule: nonzero; opacity: 1;" transform=" matrix(1 0 0 1 0 0) " stroke-linecap="round" />
	<path d="M 68.685 47.997 h 1.566 c 0.79 0 1.43 -0.64 1.43 -1.43 v 0 c 0 -0.79 -0.64 -1.43 -1.43 -1.43 l -36.995 0 c -3.356 0 -6.076 2.72 -6.076 6.076 v 0 c 0 3.356 2.72 6.076 6.076 6.076 l 36.995 0 c 0.79 0 1.43 -0.64 1.43 -1.43 v 0 c 0 -0.79 -0.64 -1.43 -1.43 -1.43 h -1.566 L 68.685 47.997 z" style="stroke: none; stroke-width: 1; stroke-dasharray: none; stroke-linecap: butt; stroke-linejoin: miter; stroke-miterlimit: 10; fill: rgb(182,73,64); fill-rule: nonzero; opacity: 1;" transform=" matrix(1 0 0 1 0 0) " stroke-linecap="round" />
	<path d="M 40.322 27.822 l 20.661 0 c 1.107 0 2.004 -0.897 2.004 -2.004 l 0 -12.439 c 0 -1.107 -0.897 -2.004 -2.004 -2.004 l -20.661 0 c -1.107 0 -2.004 0.897 -2.004 2.004 v 12.439 C 38.318 26.925 39.215 27.822 40.322 27.822 z" style="stroke: none; stroke-width: 1; stroke-dasharray: none; stroke-linecap: butt; stroke-linejoin: miter; stroke-miterlimit: 10; fill: rgb(240,184,180); fill-rule: nonzero; opacity: 1;" transform=" matrix(1 0 0 1 0 0) " stroke-linecap="round" />
	<path d="M 33.634 54.428 l 36.352 0 v -6.431 l -36.352 0 c -1.776 0 -3.216 1.44 -3.216 3.216 v 0 C 30.419 52.989 31.858 54.428 33.634 54.428 z" style="stroke: none; stroke-width: 1; stroke-dasharray: none; stroke-linecap: butt; stroke-linejoin: miter; stroke-miterlimit: 10; fill: rgb(240,184,180); fill-rule: nonzero; opacity: 1;" transform=" matrix(1 0 0 1 0 0) " stroke-linecap="round" />
	<path d="M 61.977 34.413 H 39.329 c -0.558 0 -1.011 -0.453 -1.011 -1.011 s 0.453 -1.011 1.011 -1.011 h 22.648 c 0.559 0 1.011 0.453 1.011 1.011 S 62.536 34.413 61.977 34.413 z" style="stroke: none; stroke-width: 1; stroke-dasharray: none; stroke-linecap: butt; stroke-linejoin: miter; stroke-miterlimit: 10; fill: rgb(240,184,180); fill-rule: nonzero; opacity: 1;" transform=" matrix(1 0 0 1 0 0) " stroke-linecap="round" />
	<path d="M 61.977 40.404 H 39.329 c -0.558 0 -1.011 -0.453 -1.011 -1.011 c 0 -0.558 0.453 -1.011 1.011 -1.011 h 22.648 c 0.559 0 1.011 0.453 1.011 1.011 C 62.988 39.951 62.536 40.404 61.977 40.404 z" style="stroke: none; stroke-width: 1; stroke-dasharray: none; stroke-linecap: butt; stroke-linejoin: miter; stroke-miterlimit: 10; fill: rgb(240,184,180); fill-rule: nonzero; opacity: 1;" transform=" matrix(1 0 0 1 0 0) " stroke-linecap="round" />
</g>
</svg>